<?xml version="1.0" encoding="UTF-8" standalone="no"?><!DOCTYPE svg PUBLIC "-//W3C//DTD SVG 1.1//EN" "http://www.w3.org/Graphics/SVG/1.1/DTD/svg11.dtd"><svg width="100%" height="100%" viewBox="0 0 35 35" version="1.1" xmlns="http://www.w3.org/2000/svg" xmlns:xlink="http://www.w3.org/1999/xlink" xml:space="preserve" xmlns:serif="http://www.serif.com/" style="fill-rule:evenodd;clip-rule:evenodd;stroke-linejoin:round;stroke-miterlimit:1.41421;"><path d="M24.559,22.165l-4.9,4.861c-4.86,-2.781 -8.885,-6.805 -11.665,-11.666l4.861,-4.9c0.447,-0.466 0.641,-1.108 0.524,-1.75l-1.458,-7.155c-0.175,-0.894 -0.972,-1.555 -1.905,-1.555l-8.069,0c-1.089,0 -2.003,0.914 -1.944,2.003c0.33,5.619 2.041,10.888 4.724,15.496c3.072,5.308 7.486,9.702 12.774,12.774c4.608,2.663 9.877,4.394 15.496,4.724c1.089,0.059 2.003,-0.855 2.003,-1.944l0,-8.069c0,-0.933 -0.661,-1.73 -1.555,-1.905l-7.136,-1.419c-0.311,-0.068 -0.633,-0.057 -0.939,0.031c-0.305,0.088 -0.584,0.251 -0.811,0.474Z" style="fill:#fff;fill-rule:nonzero;"/></svg>