<?xml version="1.0" encoding="UTF-8" standalone="no"?><!DOCTYPE svg PUBLIC "-//W3C//DTD SVG 1.1//EN" "http://www.w3.org/Graphics/SVG/1.1/DTD/svg11.dtd"><svg width="100%" height="100%" viewBox="0 0 56 56" version="1.1" xmlns="http://www.w3.org/2000/svg" xmlns:xlink="http://www.w3.org/1999/xlink" xml:space="preserve" xmlns:serif="http://www.serif.com/" style="fill-rule:evenodd;clip-rule:evenodd;stroke-linejoin:round;stroke-miterlimit:1.41421;"><g><path d="M36.75,46.69l-4.532,-4.532l-2.468,2.467l7,7l12.25,-12.25l-2.468,-2.468l-9.782,9.783Z" style="fill:#f3525a;fill-rule:nonzero;"/><path d="M15.75,14.875c0.966,0 1.75,-0.784 1.75,-1.75c0,-0.966 -0.784,-1.75 -1.75,-1.75c-0.966,0 -1.75,0.784 -1.75,1.75c0,0.966 0.784,1.75 1.75,1.75Z" style="fill:#f3525a;fill-rule:nonzero;"/><path d="M15.75,28.875c0.966,0 1.75,-0.784 1.75,-1.75c0,-0.966 -0.784,-1.75 -1.75,-1.75c-0.966,0 -1.75,0.784 -1.75,1.75c0,0.966 0.784,1.75 1.75,1.75Z" style="fill:#f3525a;fill-rule:nonzero;"/><path d="M15.75,42.875c0.966,0 1.75,-0.783 1.75,-1.75c0,-0.967 -0.784,-1.75 -1.75,-1.75c-0.966,0 -1.75,0.783 -1.75,1.75c0,0.967 0.784,1.75 1.75,1.75Z" style="fill:#f3525a;fill-rule:nonzero;"/><path d="M38.5,4.375l-28,0c-0.928,0 -1.819,0.369 -2.475,1.025c-0.656,0.656 -1.025,1.547 -1.025,2.475l0,38.5c0,0.928 0.369,1.819 1.025,2.475c0.656,0.656 1.547,1.025 2.475,1.025l14,0l0,-3.5l-14,0l0,-10.5l31.5,0l0,-28c0,-0.928 -0.369,-1.819 -1.025,-2.475c-0.657,-0.656 -1.547,-1.025 -2.475,-1.025Zm0,28l-28,0l0,-10.5l28,0l0,10.5Zm0,-14l-28,0l0,-10.5l28,0l0,10.5Z" style="fill:#f3525a;fill-rule:nonzero;"/></g></svg>