<?xml version="1.0" encoding="UTF-8" standalone="no"?><!DOCTYPE svg PUBLIC "-//W3C//DTD SVG 1.1//EN" "http://www.w3.org/Graphics/SVG/1.1/DTD/svg11.dtd"><svg width="100%" height="100%" viewBox="0 0 8 8" version="1.1" xmlns="http://www.w3.org/2000/svg" xmlns:xlink="http://www.w3.org/1999/xlink" xml:space="preserve" xmlns:serif="http://www.serif.com/" style="fill-rule:evenodd;clip-rule:evenodd;stroke-linejoin:round;stroke-miterlimit:1.41421;"><path d="M2.568,7.999c-0.133,0 -0.261,-0.046 -0.363,-0.131c-0.057,-0.048 -0.105,-0.107 -0.14,-0.173c-0.034,-0.066 -0.056,-0.139 -0.063,-0.214c-0.006,-0.074 0.001,-0.15 0.024,-0.221c0.022,-0.072 0.058,-0.138 0.105,-0.196l2.539,-3.056l-2.448,-3.062c-0.047,-0.058 -0.082,-0.125 -0.103,-0.197c-0.022,-0.072 -0.029,-0.148 -0.021,-0.223c0.008,-0.074 0.031,-0.147 0.067,-0.213c0.035,-0.066 0.084,-0.124 0.142,-0.171c0.059,-0.052 0.127,-0.091 0.202,-0.115c0.074,-0.024 0.153,-0.032 0.23,-0.024c0.078,0.008 0.153,0.032 0.221,0.071c0.068,0.038 0.127,0.091 0.174,0.154l2.737,3.421c0.083,0.102 0.129,0.23 0.129,0.362c0,0.132 -0.046,0.26 -0.129,0.362l-2.833,3.421c-0.057,0.069 -0.129,0.123 -0.211,0.159c-0.082,0.036 -0.17,0.051 -0.259,0.046Z" style="fill:#fff;fill-rule:nonzero;"/></svg>