<?xml version="1.0" encoding="UTF-8" standalone="no"?><!DOCTYPE svg PUBLIC "-//W3C//DTD SVG 1.1//EN" "http://www.w3.org/Graphics/SVG/1.1/DTD/svg11.dtd"><svg width="100%" height="100%" viewBox="0 0 12 12" version="1.1" xmlns="http://www.w3.org/2000/svg" xmlns:xlink="http://www.w3.org/1999/xlink" xml:space="preserve" xmlns:serif="http://www.serif.com/" style="fill-rule:evenodd;clip-rule:evenodd;stroke-linejoin:round;stroke-miterlimit:1.41421;"><path d="M3.835,11.691c-0.195,0 -0.384,-0.067 -0.534,-0.192c-0.084,-0.07 -0.154,-0.155 -0.205,-0.253c-0.051,-0.096 -0.082,-0.203 -0.092,-0.312c-0.011,-0.109 0.001,-0.219 0.034,-0.324c0.032,-0.104 0.085,-0.201 0.155,-0.286l3.733,-4.466l-3.6,-4.475c-0.069,-0.086 -0.12,-0.184 -0.152,-0.289c-0.031,-0.105 -0.041,-0.216 -0.029,-0.325c0.011,-0.109 0.044,-0.215 0.097,-0.311c0.053,-0.097 0.124,-0.182 0.209,-0.25c0.087,-0.076 0.188,-0.133 0.297,-0.168c0.109,-0.035 0.225,-0.047 0.339,-0.036c0.114,0.012 0.225,0.047 0.325,0.104c0.1,0.056 0.187,0.133 0.256,0.225l4.025,5c0.123,0.149 0.19,0.336 0.19,0.529c0,0.193 -0.067,0.38 -0.19,0.529l-4.167,5c-0.083,0.101 -0.189,0.181 -0.31,0.233c-0.12,0.052 -0.25,0.075 -0.381,0.067Z" style="fill:#fff;fill-rule:nonzero;"/></svg>