<?xml version="1.0" encoding="UTF-8" standalone="no"?><!DOCTYPE svg PUBLIC "-//W3C//DTD SVG 1.1//EN" "http://www.w3.org/Graphics/SVG/1.1/DTD/svg11.dtd"><svg width="100%" height="100%" viewBox="0 0 56 56" version="1.1" xmlns="http://www.w3.org/2000/svg" xmlns:xlink="http://www.w3.org/1999/xlink" xml:space="preserve" xmlns:serif="http://www.serif.com/" style="fill-rule:evenodd;clip-rule:evenodd;stroke-linejoin:round;stroke-miterlimit:1.41421;"><path d="M46.387,41.93c1.026,-1.633 1.633,-3.523 1.633,-5.577c0,-5.81 -4.69,-10.5 -10.5,-10.5c-5.81,0 -10.5,4.69 -10.5,10.5c0,5.81 4.69,10.5 10.477,10.5c2.053,0 3.966,-0.606 5.576,-1.633l7.28,7.28l3.314,-3.313l-7.28,-7.257Zm-8.867,0.257c-1.547,0 -3.031,-0.615 -4.125,-1.709c-1.094,-1.094 -1.708,-2.578 -1.708,-4.125c0,-1.547 0.614,-3.03 1.708,-4.124c1.094,-1.094 2.578,-1.709 4.125,-1.709c1.547,0 3.031,0.615 4.125,1.709c1.094,1.094 1.708,2.577 1.708,4.124c0,1.547 -0.614,3.031 -1.708,4.125c-1.094,1.094 -2.578,1.709 -4.125,1.709Zm-0.84,-19.834c-1.727,0.047 -3.383,0.42 -4.9,1.05l-1.283,-1.936l-8.867,14.42l-7.023,-8.214l-8.47,13.557l-3.804,-2.73l11.667,-18.667l7,8.167l9.333,-15.167l6.347,9.52Zm6.043,1.167c-1.493,-0.653 -3.103,-1.05 -4.783,-1.143l11.947,-18.877l3.78,2.753l-10.944,17.267Z" style="fill:#f3525a;fill-rule:nonzero;"/></svg>