<?xml version="1.0" encoding="UTF-8" standalone="no"?><!DOCTYPE svg PUBLIC "-//W3C//DTD SVG 1.1//EN" "http://www.w3.org/Graphics/SVG/1.1/DTD/svg11.dtd"><svg width="100%" height="100%" viewBox="0 0 24 24" version="1.1" xmlns="http://www.w3.org/2000/svg" xmlns:xlink="http://www.w3.org/1999/xlink" xml:space="preserve" xmlns:serif="http://www.serif.com/" style="fill-rule:evenodd;clip-rule:evenodd;stroke-linejoin:round;stroke-miterlimit:1.41421;"><path d="M1.5,12c0,-0.199 0.079,-0.39 0.22,-0.53c0.14,-0.141 0.331,-0.22 0.53,-0.22l17.69,0l-4.721,-4.719c-0.141,-0.141 -0.22,-0.332 -0.22,-0.531c0,-0.199 0.079,-0.39 0.22,-0.531c0.141,-0.141 0.332,-0.22 0.531,-0.22c0.199,0 0.39,0.079 0.531,0.22l6,6c0.07,0.07 0.125,0.152 0.163,0.243c0.038,0.092 0.057,0.189 0.057,0.288c0,0.099 -0.019,0.196 -0.057,0.287c-0.038,0.091 -0.093,0.174 -0.163,0.244l-6,6c-0.141,0.141 -0.332,0.22 -0.531,0.22c-0.199,0 -0.39,-0.079 -0.531,-0.22c-0.141,-0.141 -0.22,-0.332 -0.22,-0.531c0,-0.199 0.079,-0.39 0.22,-0.531l4.72,-4.719l-17.689,0c-0.199,0 -0.39,-0.079 -0.53,-0.22c-0.141,-0.14 -0.22,-0.331 -0.22,-0.53Z"/></svg>