<?xml version="1.0" encoding="UTF-8" standalone="no"?><!DOCTYPE svg PUBLIC "-//W3C//DTD SVG 1.1//EN" "http://www.w3.org/Graphics/SVG/1.1/DTD/svg11.dtd"><svg width="100%" height="100%" viewBox="0 0 36 36" version="1.1" xmlns="http://www.w3.org/2000/svg" xmlns:xlink="http://www.w3.org/1999/xlink" xml:space="preserve" xmlns:serif="http://www.serif.com/" style="fill-rule:evenodd;clip-rule:evenodd;stroke-linejoin:round;stroke-miterlimit:1.41421;"><path d="M0.999,18c0,-0.322 0.128,-0.631 0.356,-0.859c0.228,-0.227 0.537,-0.355 0.859,-0.355l28.639,0l-7.642,-7.64c-0.228,-0.228 -0.357,-0.538 -0.357,-0.86c0,-0.323 0.129,-0.632 0.357,-0.86c0.228,-0.228 0.537,-0.356 0.859,-0.356c0.323,0 0.632,0.128 0.86,0.356l9.714,9.714c0.113,0.113 0.203,0.247 0.264,0.395c0.061,0.147 0.093,0.305 0.093,0.465c0,0.16 -0.032,0.318 -0.093,0.465c-0.061,0.148 -0.151,0.282 -0.264,0.395l-9.714,9.714c-0.228,0.228 -0.537,0.356 -0.86,0.356c-0.322,0 -0.631,-0.128 -0.859,-0.356c-0.228,-0.228 -0.357,-0.538 -0.357,-0.86c0,-0.322 0.129,-0.632 0.357,-0.86l7.642,-7.64l-28.639,0c-0.322,0 -0.631,-0.128 -0.859,-0.355c-0.228,-0.228 -0.356,-0.537 -0.356,-0.859Z" style="fill:#fff;fill-opacity:0.5;"/></svg>