<?xml version="1.0" encoding="UTF-8" standalone="no"?><!DOCTYPE svg PUBLIC "-//W3C//DTD SVG 1.1//EN" "http://www.w3.org/Graphics/SVG/1.1/DTD/svg11.dtd"><svg width="100%" height="100%" viewBox="0 0 56 56" version="1.1" xmlns="http://www.w3.org/2000/svg" xmlns:xlink="http://www.w3.org/1999/xlink" xml:space="preserve" xmlns:serif="http://www.serif.com/" style="fill-rule:evenodd;clip-rule:evenodd;stroke-linejoin:round;stroke-miterlimit:1.41421;"><g><path d="M35,34.125l0,-5.25c0,-1.856 -0.737,-3.637 -2.05,-4.95c-1.313,-1.312 -3.093,-2.05 -4.95,-2.05c-1.856,0 -3.637,0.738 -4.95,2.05c-1.312,1.313 -2.05,3.094 -2.05,4.95l0,5.25c-0.928,0.001 -1.818,0.37 -2.474,1.026c-0.656,0.656 -1.025,1.546 -1.026,2.474l0,10.5c0.001,0.928 0.37,1.818 1.026,2.474c0.656,0.656 1.546,1.025 2.474,1.026l14,0c0.928,-0.001 1.818,-0.37 2.474,-1.026c0.656,-0.656 1.025,-1.546 1.026,-2.474l0,-10.5c-0.001,-0.928 -0.37,-1.818 -1.026,-2.474c-0.656,-0.656 -1.546,-1.025 -2.474,-1.026Zm-10.5,-5.25c0,-0.928 0.369,-1.818 1.025,-2.475c0.657,-0.656 1.547,-1.025 2.475,-1.025c0.928,0 1.819,0.369 2.475,1.025c0.656,0.657 1.025,1.547 1.025,2.475l0,5.25l-7,0l0,-5.25Zm-3.5,19.25l0,-10.5l14,0l0,10.5l-14,0Z" style="fill:#f3525a;fill-rule:nonzero;"/><path d="M10.684,11.559l2.474,2.474c1.948,-1.952 4.261,-3.5 6.808,-4.557c2.547,-1.057 5.277,-1.6 8.034,-1.6c2.757,0 5.487,0.543 8.034,1.6c2.547,1.057 4.86,2.605 6.808,4.557l2.474,-2.474c-2.272,-2.277 -4.971,-4.084 -7.942,-5.317c-2.972,-1.233 -6.157,-1.867 -9.374,-1.867c-3.217,0 -6.402,0.634 -9.374,1.867c-2.971,1.233 -5.67,3.04 -7.942,5.317Z" style="fill:#f3525a;fill-rule:nonzero;"/><path d="M28,13.125c-2.068,-0.001 -4.116,0.407 -6.026,1.2c-1.91,0.792 -3.645,1.955 -5.104,3.42l2.471,2.473c1.136,-1.139 2.486,-2.042 3.971,-2.658c1.486,-0.617 3.079,-0.934 4.687,-0.934c1.609,0 3.201,0.317 4.687,0.934c1.486,0.616 2.835,1.519 3.971,2.658l2.475,-2.475c-1.46,-1.465 -3.195,-2.627 -5.105,-3.419c-1.911,-0.793 -3.959,-1.2 -6.027,-1.199Z" style="fill:#f3525a;fill-rule:nonzero;"/></g></svg>